<?xml version="1.0" standalone="no"?>
<!DOCTYPE svg PUBLIC "-//W3C//DTD SVG 20010904//EN"
 "http://www.w3.org/TR/2001/REC-SVG-20010904/DTD/svg10.dtd">
<svg version="1.0" xmlns="http://www.w3.org/2000/svg"
 viewBox="0 0 500.000000 500.000000"
 preserveAspectRatio="xMidYMid meet">
<metadata>
Created by potrace 1.16, written by Peter Selinger 2001-2019
</metadata>
<g transform="translate(0.000000,500.000000) scale(0.100000,-0.100000)"
fill="#1B4079" stroke="none">
<path d="M0 2500 l0 -2500 2500 0 2500 0 0 2500 0 2500 -2500 0 -2500 0 0
-2500z m2655 1875 c135 -8 321 -46 470 -96 82 -29 306 -138 385 -189 594 -385
926 -1056 864 -1745 -15 -164 -20 -190 -63 -360 -54 -213 -212 -510 -368 -695
-267 -316 -638 -540 -1043 -629 -136 -29 -208 -36 -400 -36 -216 0 -313 11
-485 57 -254 67 -528 208 -720 371 -302 256 -517 595 -613 962 -55 210 -57
232 -56 490 0 242 0 244 45 435 35 153 79 271 154 417 188 366 472 645 840
828 190 94 331 140 530 174 84 15 276 29 325 25 19 -2 80 -6 135 -9z"/>
<path d="M2245 4235 c-484 -76 -917 -349 -1194 -754 -61 -89 -178 -320 -206
-405 -116 -357 -126 -706 -29 -1051 13 -49 34 -115 46 -145 43 -110 149 -307
215 -400 86 -120 281 -314 404 -403 94 -67 350 -201 443 -232 361 -118 716
-127 1061 -26 55 16 120 37 145 47 102 40 301 149 389 212 123 87 318 282 404
402 72 101 203 354 236 458 111 346 120 699 25 1037 -13 50 -29 100 -34 113
-6 12 -14 32 -18 45 -29 78 -153 307 -210 386 -86 121 -281 317 -403 404 -176
126 -449 247 -654 291 -175 38 -454 47 -620 21z m550 -75 c227 -39 487 -147
673 -280 372 -267 621 -663 696 -1108 21 -124 22 -425 1 -541 -48 -263 -135
-479 -277 -688 -86 -127 -263 -309 -386 -398 -227 -164 -451 -259 -733 -310
-129 -23 -415 -20 -564 5 -334 57 -646 221 -895 470 -253 252 -413 557 -470
896 -26 152 -28 429 -4 566 77 447 324 842 694 1106 185 133 442 241 665 281
158 28 440 28 600 1z"/>
<path d="M1509 3508 c-13 -17 -16 -28 -8 -23 9 5 8 1 -3 -12 -20 -22 -24 -78
-6 -89 8 -5 9 -2 5 9 -3 10 -2 17 2 17 5 0 12 -6 14 -12 3 -7 6 1 6 17 2 37
21 77 41 82 13 4 13 3 0 -6 -12 -8 -8 -17 26 -50 60 -57 113 -82 142 -67 l23
12 -26 12 c-15 7 -31 9 -37 6 -6 -4 -8 -2 -5 3 4 6 0 13 -8 17 -8 3 -17 1 -20
-3 -6 -11 -45 -2 -45 11 0 5 10 4 23 -2 20 -10 21 -10 4 4 -11 8 -25 12 -33 9
-11 -4 -14 1 -10 20 3 17 -3 31 -18 44 -39 34 -44 34 -67 1z"/>
<path d="M3430 3515 c-19 -20 -21 -27 -10 -40 11 -13 10 -14 -4 -9 -9 3 -16 1
-16 -6 0 -6 -5 -8 -12 -4 -9 5 -9 2 1 -9 15 -18 26 -23 16 -7 -3 6 1 10 9 10
8 0 22 10 30 22 l15 21 11 -27 c5 -15 10 -42 10 -59 0 -28 19 -78 20 -52 0 6
5 3 10 -5 17 -26 12 96 -6 140 -9 23 -19 38 -22 36 -3 -3 -10 -1 -17 4 -8 7
-19 2 -35 -15z"/>
<path d="M2347 3481 c-26 -3 -47 -10 -47 -16 1 -5 -9 -13 -22 -17 -13 -3 9 -6
50 -7 40 -1 71 3 68 7 -6 10 78 36 96 29 7 -2 -3 -9 -22 -14 -29 -8 -16 -11
83 -15 64 -3 132 -2 150 3 l32 8 -33 -3 c-18 -1 -35 1 -38 6 -3 4 3 9 13 9 10
1 -4 5 -32 9 -57 9 -227 10 -298 1z m213 -17 c0 -2 -11 -4 -25 -4 -14 0 -25 4
-25 9 0 4 11 6 25 3 14 -2 25 -6 25 -8z"/>
<path d="M2258 3463 c7 -3 16 -2 19 1 4 3 -2 6 -13 5 -11 0 -14 -3 -6 -6z"/>
<path d="M2186 3445 c-11 -8 -37 -15 -59 -15 -21 0 -48 -5 -60 -12 -12 -7 -31
-13 -42 -15 -11 -2 -22 -8 -23 -13 -2 -6 -7 -8 -11 -6 -4 3 -13 0 -21 -5 -11
-7 -7 -8 12 -5 15 3 30 0 33 -5 4 -5 11 -9 16 -9 6 0 7 5 3 12 -4 6 -3 8 3 5
14 -9 125 28 116 38 -5 4 -2 5 5 1 8 -5 20 0 30 12 9 10 24 21 32 25 13 5 13
5 0 6 -8 0 -24 -6 -34 -14z"/>
<path d="M2771 3456 c2 -2 24 -11 49 -19 34 -12 39 -16 20 -17 -22 -1 -23 -2
-7 -11 22 -13 51 -4 41 12 -4 8 -3 9 4 5 6 -4 9 -12 6 -19 -2 -7 14 -19 41
-28 24 -9 42 -13 40 -8 -3 4 5 11 17 15 21 6 19 8 -17 21 -43 15 -180 53 -191
53 -4 0 -5 -2 -3 -4z"/>
<path d="M2210 3431 c0 -5 9 -7 20 -4 11 3 20 7 20 9 0 2 -9 4 -20 4 -11 0
-20 -4 -20 -9z"/>
<path d="M3320 3418 c-35 -22 -40 -24 -61 -27 -5 0 -7 -6 -4 -12 4 -6 14 -8
22 -4 14 5 14 3 2 -12 -8 -9 -9 -14 -4 -11 6 3 27 13 48 23 22 10 36 23 33 30
-2 7 1 18 7 24 18 18 -6 12 -43 -11z"/>
<path d="M3370 3420 c-9 -6 -10 -10 -3 -10 6 0 15 5 18 10 8 12 4 12 -15 0z"/>
<path d="M1481 3354 c0 -11 3 -14 6 -6 3 7 2 16 -1 19 -3 4 -6 -2 -5 -13z"/>
<path d="M1818 3358 c11 -4 6 -7 -16 -7 -18 -1 -31 -5 -27 -11 3 -5 12 -7 20
-3 8 3 15 0 15 -6 0 -7 21 -11 55 -11 52 0 71 11 43 24 -7 4 -3 4 10 2 12 -2
20 0 17 4 -3 5 -1 10 5 12 5 1 -24 3 -65 3 -41 0 -67 -3 -57 -7z"/>
<path d="M3068 3363 c7 -3 16 -2 19 1 4 3 -2 6 -13 5 -11 0 -14 -3 -6 -6z"/>
<path d="M3170 3359 c0 -7 -12 -9 -32 -5 -35 6 -51 0 -56 -22 -2 -10 11 -12
48 -10 28 2 49 6 48 10 -2 4 6 14 17 22 20 15 20 15 -2 16 -13 0 -23 -5 -23
-11z m-3 -25 c-3 -3 -12 -4 -19 -1 -8 3 -5 6 6 6 11 1 17 -2 13 -5z"/>
<path d="M3480 3315 c0 -8 8 -15 18 -14 10 0 12 3 4 6 -6 2 -10 9 -6 14 3 5 0
9 -5 9 -6 0 -11 -7 -11 -15z"/>
<path d="M1413 3308 c-6 -7 -10 -35 -11 -63 l0 -50 8 40 c4 22 6 43 4 47 -2 4
6 14 18 22 17 12 18 16 6 16 -8 0 -20 -6 -25 -12z"/>
<path d="M3547 3314 c-4 -4 -3 -12 1 -18 4 -6 7 -14 8 -18 1 -5 2 -11 3 -15 1
-5 5 -2 10 5 7 11 9 10 14 -3 4 -9 3 -13 -2 -10 -5 3 -12 1 -15 -4 -4 -5 -2
-12 4 -16 5 -3 10 -11 10 -16 0 -6 -4 -7 -10 -4 -12 7 -42 -63 -33 -78 3 -5 1
-7 -5 -3 -6 3 -13 -3 -17 -13 -3 -11 -30 -35 -59 -53 l-53 -34 39 -69 c22 -39
46 -75 54 -81 16 -13 20 -29 4 -19 -6 4 -7 -1 -3 -11 5 -14 8 -12 20 9 10 20
11 32 2 51 -7 14 -16 23 -22 19 -6 -3 -7 -1 -3 5 3 6 -4 27 -16 48 -15 25 -18
39 -11 41 7 3 24 13 38 25 22 17 24 22 13 36 -11 13 -11 14 0 8 16 -9 39 8 58
45 19 37 28 147 13 165 -12 15 -31 18 -42 8z m-33 -232 c3 -5 -1 -9 -9 -9 -8
0 -12 4 -9 9 3 4 7 8 9 8 2 0 6 -4 9 -8z m4 -198 c-4 -3 -12 5 -18 18 -12 22
-12 22 6 6 10 -10 15 -20 12 -24z"/>
<path d="M3446 3269 c-20 -50 -20 -59 2 -54 36 7 72 25 72 35 0 6 6 8 13 4 9
-6 9 -5 0 7 -8 10 -25 14 -45 13 -25 -3 -28 -2 -10 4 22 7 22 7 3 19 -17 11
-21 8 -35 -28z"/>
<path d="M1436 3291 c-4 -5 -2 -12 3 -15 5 -4 12 -2 15 3 4 5 2 12 -3 15 -5 4
-12 2 -15 -3z"/>
<path d="M1521 3281 c-6 -10 -7 -22 -3 -26 4 -5 2 -5 -5 -1 -7 4 -9 14 -6 24
4 13 2 13 -10 -3 -9 -11 -11 -22 -6 -23 5 -2 7 -7 5 -11 -3 -4 8 -12 25 -18
18 -7 29 -8 29 -2 0 6 5 7 10 4 13 -8 13 -1 -4 40 -17 40 -21 42 -35 16z"/>
<path d="M1418 3210 c-6 -37 -3 -52 17 -86 30 -51 83 -97 102 -90 10 4 6 -9
-11 -40 -14 -25 -23 -51 -19 -57 3 -6 1 -7 -5 -3 -7 4 -12 3 -12 -3 0 -5 5
-13 10 -16 6 -3 10 -11 10 -17 0 -7 -5 -7 -14 1 -11 9 -15 8 -20 -6 -4 -10 -4
-14 0 -10 4 4 12 3 18 -2 8 -7 25 14 54 66 23 42 42 82 42 90 0 8 4 12 9 8 5
-3 13 0 18 7 11 19 13 39 2 32 -5 -3 -7 -9 -4 -14 3 -5 1 -11 -5 -15 -5 -3
-10 -1 -10 6 0 7 -7 4 -15 -7 -9 -12 -14 -14 -15 -6 0 7 -4 11 -9 8 -5 -3 -12
1 -15 10 -3 9 -12 14 -18 12 -13 -5 -17 0 -57 73 -13 24 -27 46 -31 49 -5 3
-10 16 -12 30 -3 18 -5 13 -10 -20z m77 -124 c0 -9 7 -21 15 -26 8 -5 11 -10
6 -10 -15 0 -46 32 -46 47 0 8 6 13 13 10 6 -2 12 -11 12 -21z"/>
<path d="M3370 3081 c0 -10 19 -25 25 -20 1 2 -3 10 -11 17 -8 7 -14 8 -14 3z"/>
<path d="M1889 2937 c-43 -23 -80 -69 -67 -83 4 -3 31 3 60 15 29 11 72 25 96
31 42 11 52 26 30 48 -19 19 -71 14 -119 -11z"/>
<path d="M2991 2946 c-16 -20 1 -46 30 -46 10 0 48 -12 84 -26 36 -15 68 -24
71 -21 3 3 3 15 -1 27 -17 53 -154 102 -184 66z"/>
<path d="M1459 2860 c-2 -16 -5 -22 -22 -62 -9 -20 -21 -55 -26 -78 -8 -34 -7
-41 5 -36 12 4 12 2 4 -15 -6 -11 -15 -17 -19 -15 -5 3 -14 -36 -21 -87 -17
-130 -30 -205 -39 -230 -5 -12 -5 -31 -1 -42 6 -18 8 -17 24 8 10 15 16 34 12
42 -3 9 -2 13 4 10 6 -3 10 -3 10 2 0 4 6 46 14 93 8 47 17 110 20 140 5 53 5
54 -9 25 l-14 -30 6 30 c8 39 12 47 24 40 5 -4 9 2 9 12 0 10 11 49 24 86 22
65 24 117 5 117 -5 0 -10 -4 -10 -10z m12 -57 c-8 -15 -10 -15 -11 -2 0 17 10
32 18 25 2 -3 -1 -13 -7 -23z"/>
<path d="M3526 2838 c3 -4 -1 -8 -8 -8 -10 0 -10 -2 1 -9 8 -5 10 -14 6 -21
-5 -8 -4 -11 2 -7 7 4 11 -2 10 -16 0 -12 7 -49 17 -82 9 -33 21 -100 27 -150
7 -49 16 -95 21 -101 4 -6 5 -20 2 -30 -4 -11 -3 -16 1 -12 5 5 10 20 11 35 2
16 6 42 9 58 5 22 4 26 -4 16 -7 -11 -8 -3 -4 27 3 22 2 49 -3 59 -4 10 -8 27
-9 38 -1 11 -2 30 -3 43 -1 15 -6 21 -14 16 -7 -5 -8 -3 -3 5 9 16 -15 102
-27 95 -5 -3 -9 0 -7 7 4 30 -2 46 -16 46 -8 0 -12 -4 -9 -9z m39 -68 c3 -6
-1 -7 -9 -4 -18 7 -21 14 -7 14 6 0 13 -4 16 -10z m29 -106 c3 -8 2 -12 -4 -9
-6 3 -10 10 -10 16 0 14 7 11 14 -7z"/>
<path d="M1895 2766 c-86 -41 -154 -135 -110 -152 13 -5 29 5 59 39 49 55 92
77 143 76 22 -1 29 -4 16 -6 -12 -2 -40 -24 -62 -48 -51 -56 -63 -113 -37
-176 6 -14 -1 -18 -43 -24 -27 -4 -57 -12 -66 -19 -14 -10 4 -12 92 -12 95 0
117 -3 183 -28 108 -40 110 -40 143 23 62 123 8 274 -118 332 -57 26 -138 24
-200 -5z m127 -121 c9 -21 8 -28 -7 -45 -10 -11 -26 -20 -35 -20 -9 0 -25 9
-35 20 -27 30 -7 70 35 70 23 0 33 -6 42 -25z m42 -70 c3 -9 -1 -18 -10 -22
-19 -7 -39 11 -30 26 10 16 33 13 40 -4z m132 -119 c-8 -40 -26 -59 -45 -46
-12 7 -9 15 12 40 15 17 27 36 27 42 0 6 3 9 6 5 4 -3 3 -22 0 -41z"/>
<path d="M1945 2640 c-8 -25 10 -50 36 -50 22 0 38 26 32 51 -8 27 -59 26 -68
-1z"/>
<path d="M2035 2570 c-3 -5 -1 -10 4 -10 6 0 11 5 11 10 0 6 -2 10 -4 10 -3 0
-8 -4 -11 -10z"/>
<path d="M2889 2762 c-43 -22 -61 -40 -89 -87 -31 -53 -35 -67 -35 -130 0 -57
5 -79 25 -115 30 -53 35 -53 140 -14 66 25 88 28 183 28 88 0 106 2 92 12 -9
7 -39 15 -66 19 -42 6 -49 10 -43 24 34 77 -14 187 -96 220 -23 9 -23 10 13
10 52 1 94 -22 143 -76 30 -34 46 -44 59 -39 43 16 -29 117 -112 156 -64 30
-147 27 -214 -8z m33 -117 c10 -22 9 -29 -9 -47 -16 -15 -28 -19 -48 -14 -32
8 -41 29 -27 62 16 35 68 34 84 -1z m46 -78 c3 -12 -3 -17 -20 -16 -17 1 -18
3 -5 6 9 2 15 9 11 14 -3 5 -10 7 -15 4 -5 -4 -9 -1 -9 5 0 18 34 7 38 -13z
m-124 -125 c17 -20 18 -24 6 -32 -21 -13 -37 7 -45 55 -5 34 -4 37 6 20 6 -11
21 -30 33 -43z"/>
<path d="M2849 2644 c-9 -11 -10 -20 -2 -32 24 -39 82 -15 68 28 -8 24 -47 27
-66 4z"/>
<path d="M2445 2456 c-52 -22 -93 -79 -106 -146 -6 -33 -13 -60 -14 -60 -1 0
-17 5 -36 11 -48 17 -62 29 -49 44 7 8 7 15 1 19 -15 9 -38 -3 -56 -30 -18
-28 -11 -52 10 -34 11 9 21 6 43 -10 15 -12 46 -27 68 -35 33 -11 44 -23 69
-71 32 -64 98 -134 125 -134 27 0 92 69 127 136 25 48 39 63 60 67 16 3 45 17
67 32 30 20 41 23 52 14 8 -7 17 -9 20 -6 12 12 -9 48 -35 62 -31 16 -47 10
-30 -11 9 -10 7 -15 -5 -20 -9 -3 -14 -9 -12 -13 3 -4 -3 -7 -12 -7 -9 0 -27
-4 -38 -7 -19 -7 -22 -2 -33 54 -11 52 -20 69 -57 107 -37 37 -49 43 -72 38
-20 -5 -23 -4 -12 4 23 15 -38 12 -75 -4z m114 -43 c14 -9 21 -11 17 -5 -3 6
-1 14 6 18 7 4 10 4 6 0 -3 -4 5 -31 18 -59 13 -29 24 -66 24 -84 0 -54 -40
-144 -86 -193 l-43 -45 -36 35 c-77 74 -108 174 -81 258 27 81 114 118 175 75z"/>
<path d="M3613 2384 c-8 -21 33 -122 67 -166 20 -24 28 -43 24 -55 -6 -16 -5
-16 8 1 12 15 17 16 23 6 5 -8 4 -11 -2 -7 -5 3 -10 0 -10 -8 0 -11 4 -12 14
-4 20 17 16 44 -13 78 -26 31 -44 40 -44 20 0 -5 5 -7 12 -3 7 5 8 3 3 -6 -6
-10 -12 -7 -26 11 -21 28 -23 35 -9 44 6 4 9 1 8 -6 -2 -6 3 -14 10 -16 8 -3
5 11 -8 42 -11 26 -20 53 -20 60 0 19 -30 27 -37 9z"/>
<path d="M1310 2273 c-8 -16 -15 -35 -15 -43 -1 -8 -7 -14 -15 -12 -7 2 -17
-3 -21 -10 -13 -19 -11 -30 4 -22 9 6 9 4 -1 -8 -11 -14 -10 -18 5 -27 13 -6
24 -6 34 1 11 8 11 9 -3 4 -28 -9 -22 17 12 50 29 28 39 54 21 54 -5 0 -7 9
-4 20 8 29 -1 25 -17 -7z"/>
<path d="M1396 2165 c-3 -8 -1 -15 3 -15 5 0 11 7 15 15 3 8 1 15 -3 15 -5 0
-11 -7 -15 -15z"/>
<path d="M1323 2160 c2 -8 9 -15 15 -15 5 0 13 -3 17 -7 4 -4 -8 -5 -26 -3
-25 3 -30 2 -19 -5 23 -15 57 -12 64 6 8 21 9 21 -16 19 -13 -1 -27 3 -31 9
-6 7 -7 6 -4 -4z"/>
<path d="M3576 2153 c-7 -27 -21 -126 -19 -142 1 -8 -5 -21 -13 -29 -8 -8 -12
-22 -9 -31 3 -10 -4 -28 -15 -41 -11 -13 -18 -30 -15 -37 2 -8 1 -12 -4 -9 -9
6 -34 -43 -30 -60 4 -21 -2 -35 -11 -29 -6 4 -9 1 -8 -7 2 -7 -3 -12 -10 -10
-8 1 -11 -2 -7 -8 4 -6 15 -4 30 6 14 9 22 20 19 25 -3 5 0 9 5 9 6 0 24 27
41 60 29 57 40 91 20 60 -8 -13 -10 -12 -10 3 0 9 7 17 17 17 14 0 14 2 -2 20
-10 11 -13 20 -7 20 7 0 12 -4 12 -10 0 -5 4 -10 8 -10 14 0 34 80 37 139 1
48 0 52 -13 35 -13 -17 -13 -16 -7 14 7 33 0 45 -9 15z"/>
<path d="M3637 2154 c7 -3 9 -12 6 -20 -3 -10 2 -14 18 -14 19 0 21 2 9 10
-13 8 -12 10 4 10 26 0 18 6 -19 13 -16 4 -25 4 -18 1z"/>
<path d="M1398 2133 c6 -2 12 -11 12 -19 0 -9 -5 -12 -11 -8 -8 5 -9 -6 -4
-37 4 -24 12 -47 17 -50 5 -3 6 -12 3 -21 -3 -8 1 -20 9 -27 16 -14 36 -7 36
12 0 7 -4 6 -10 -3 -5 -8 -12 -11 -17 -7 -4 4 -1 17 6 29 7 11 8 17 3 14 -6
-3 -13 1 -16 10 -3 8 -2 12 4 9 11 -7 12 14 4 68 -5 29 -11 37 -28 36 -11 0
-15 -3 -8 -6z"/>
<path d="M1462 1919 c-13 -20 2 -79 20 -79 5 0 7 -4 4 -8 -3 -5 4 -23 15 -41
20 -33 45 -38 43 -8 -3 35 -4 38 -16 31 -6 -4 -8 -3 -5 3 3 5 -7 34 -22 65
-25 48 -29 53 -39 37z m70 -124 c2 3 5 -1 5 -9 0 -18 -24 -10 -31 11 -5 12 -4
13 7 5 8 -7 16 -10 19 -7z"/>
<path d="M1555 1759 c-4 -6 -5 -12 -2 -15 2 -3 7 2 10 11 7 17 1 20 -8 4z"/>
<path d="M3379 1696 c-36 -42 -52 -69 -58 -103 -1 -5 -5 -2 -10 5 -6 10 -22 4
-67 -28 -32 -23 -58 -46 -56 -52 1 -5 -2 -7 -8 -3 -16 10 -59 -22 -56 -42 2
-10 7 -16 12 -15 5 2 8 8 6 14 -1 5 5 16 14 26 15 15 16 14 9 -8 -7 -24 -7
-24 11 -8 11 9 23 16 27 16 5 0 29 14 53 33 32 24 41 36 33 45 -7 8 -7 14 1
19 5 3 10 1 10 -4 0 -21 22 -10 71 36 34 32 49 53 46 65 -3 10 -2 16 3 13 4
-3 10 1 13 9 12 32 -21 21 -54 -18z m-24 -76 c-3 -5 -12 -10 -18 -10 -7 0 -6
4 3 10 19 12 23 12 15 0z"/>
<path d="M1567 1712 c10 -7 17 -15 16 -17 -12 -22 45 -69 72 -59 14 6 14 9 -6
30 -12 13 -26 21 -30 18 -5 -3 -6 3 -2 12 4 12 3 15 -5 10 -7 -4 -12 -1 -12 7
0 10 -9 14 -25 13 -23 -1 -24 -2 -8 -14z"/>
<path d="M1851 1668 c-1 -33 14 -74 34 -95 8 -8 12 -19 9 -25 -4 -7 -2 -8 4
-4 14 8 10 29 -21 96 -21 46 -25 51 -26 28z"/>
<path d="M3109 1612 c-27 -54 -33 -75 -24 -82 15 -13 68 99 63 132 -2 17 -12
4 -39 -50z"/>
<path d="M1653 1613 c9 -2 17 -8 17 -13 0 -5 8 -6 17 -3 15 6 15 7 -3 14 -10
4 -26 7 -34 7 -10 0 -9 -2 3 -5z"/>
<path d="M1707 1563 c9 -14 22 -22 30 -19 8 3 11 2 8 -4 -6 -10 29 -32 58 -37
31 -5 18 24 -24 52 -33 21 -43 24 -50 13 -8 -11 -13 -5 -11 13 1 3 -5 6 -13 6
-11 0 -10 -5 2 -24z"/>
<path d="M1907 1533 c-4 -3 3 -17 15 -30 12 -13 18 -23 14 -23 -5 0 -3 -7 4
-15 14 -17 35 -21 24 -4 -4 8 0 8 15 0 11 -7 21 -17 21 -24 0 -8 -3 -8 -9 2
-5 7 -14 10 -21 6 -6 -4 -21 2 -34 14 -21 20 -22 20 -33 2 -10 -16 -8 -20 13
-30 14 -6 30 -9 35 -6 5 4 9 1 9 -4 0 -6 6 -11 13 -11 8 0 22 -9 32 -20 10
-11 21 -17 26 -15 4 3 10 1 14 -5 3 -5 14 -14 25 -20 15 -8 18 -6 15 8 -1 9
-10 16 -19 16 -9 -1 -15 4 -14 10 4 17 -98 127 -120 131 -9 1 -16 8 -14 14 2
13 -2 14 -11 4z m134 -130 c13 -16 12 -17 -3 -4 -10 7 -18 15 -18 17 0 8 8 3
21 -13z"/>
<path d="M3041 1504 c-11 -15 -18 -31 -14 -37 3 -5 1 -7 -4 -4 -6 4 -29 -13
-51 -37 -22 -24 -43 -42 -45 -40 -2 3 -10 -2 -17 -11 -7 -8 -21 -15 -32 -15
-10 0 -17 -4 -14 -8 3 -5 -18 -7 -47 -5 -72 6 -82 10 -68 27 6 7 8 16 4 19 -3
4 -2 7 4 7 6 0 11 11 11 25 0 23 -2 22 -27 -13 -15 -20 -34 -49 -44 -64 -10
-16 -23 -28 -30 -28 -20 0 -89 -69 -81 -82 4 -7 3 -8 -5 -4 -6 4 -9 12 -6 17
3 5 -2 6 -11 2 -16 -6 -16 -7 1 -19 15 -11 24 -10 54 6 41 20 64 44 67 67 2 9
8 21 15 27 9 8 10 6 5 -9 -5 -18 -5 -19 7 -3 13 16 61 22 51 6 -3 -4 -12 -5
-22 -2 -14 5 -15 4 -2 -5 34 -25 170 -2 192 32 3 6 13 12 22 13 9 1 27 11 40
21 13 11 46 28 73 38 26 10 49 19 51 20 7 6 -11 34 -19 29 -5 -3 -16 -1 -25 4
-15 8 -15 10 0 15 9 4 13 13 10 22 -9 22 -20 19 -43 -11z m-125 -149 c-9 -9
-16 -13 -16 -8 0 12 22 34 28 28 2 -2 -3 -11 -12 -20z"/>
<path d="M1847 1489 c7 -7 15 -10 18 -7 3 3 -2 9 -12 12 -14 6 -15 5 -6 -5z"/>
<path d="M2234 1406 c3 -13 9 -31 12 -39 8 -22 -81 -28 -116 -8 -18 11 -22 11
-13 2 6 -8 9 -19 7 -26 -6 -14 26 -25 74 -25 24 0 31 3 26 13 -6 9 -4 9 8 -1
11 -9 18 -10 23 -2 3 6 11 8 16 5 5 -4 9 -1 9 6 0 7 14 -7 31 -30 51 -72 215
-132 233 -86 8 23 -59 33 -80 12 -4 -4 -14 -7 -23 -7 -11 0 -10 3 5 15 10 8
14 15 7 15 -6 0 -15 -4 -18 -10 -3 -5 -11 -10 -17 -10 -6 0 -5 7 3 18 7 9 10
14 6 11 -4 -3 -24 9 -44 27 -26 24 -43 32 -56 28 -14 -4 -17 -3 -12 6 5 8 4
11 -2 7 -6 -4 -14 0 -17 9 -3 8 -10 13 -15 9 -5 -3 -13 0 -17 6 -4 7 -3 9 4 5
21 -13 23 15 2 44 -26 36 -45 39 -36 6z"/>
<path d="M2100 1339 c0 -5 5 -7 10 -4 6 3 10 8 10 11 0 2 -4 4 -10 4 -5 0 -10
-5 -10 -11z"/>
</g>
</svg>
